<svg version="1.1" xmlns="http://www.w3.org/2000/svg" width="36" height="36" viewBox="0 0 36 36">
    <path
        d="M24.44 9.853c0.206 0.087 0.346 0.216 0.509 0.368l0.088 0.082q0.094 0.088 0.188 0.176a31.156 31.156 0 0 0 0.277 0.255c0.533 0.489 1.045 0.999 1.556 1.51l0.11 0.11c0.698 0.696 0.698 0.696 0.995 1.045 0.11 0.128 0.23 0.245 0.35 0.362 1.021 0.994 2.358 2.557 2.388 4.054 -0.003 1.183 -0.398 2.064 -1.122 2.992l-0.095 0.129c-0.27 0.357 -0.582 0.667 -0.902 0.979l-0.11 0.108 -0.097 0.094c-0.101 0.105 -0.195 0.212 -0.29 0.322 -0.209 0.239 -0.429 0.465 -0.654 0.689l-0.128 0.129q-0.208 0.208 -0.416 0.416l-0.291 0.292q-0.343 0.344 -0.687 0.687 -0.273 0.273 -0.546 0.546 -0.378 0.378 -0.756 0.756l-0.287 0.287a341.67 341.67 0 0 1 -0.402 0.402l-0.118 0.118c-0.216 0.215 -0.437 0.418 -0.667 0.617 -0.153 0.134 -0.296 0.277 -0.439 0.421l-0.092 0.093a148.183 148.183 0 0 0 -0.196 0.197 205.651 205.651 0 0 1 -0.311 0.313Q21.963 28.732 21.633 29.064q-0.383 0.385 -0.767 0.77a250.679 250.679 0 0 0 -0.304 0.306c-0.284 0.285 -0.568 0.566 -0.874 0.827 -0.139 0.12 -0.267 0.249 -0.396 0.38l-0.08 0.081q-0.124 0.126 -0.248 0.251c-0.314 0.318 -0.627 0.633 -0.967 0.924 -0.211 0.186 -0.405 0.39 -0.602 0.59 -0.271 0.276 -0.544 0.545 -0.839 0.795 -0.099 0.087 -0.191 0.179 -0.283 0.275 -0.997 0.999 -2.061 1.203 -3.427 1.211 -1.257 -0.002 -2.223 -0.324 -3.158 -1.18l-0.142 -0.129c-0.947 -0.899 -1.647 -2.251 -1.687 -3.567 -0.021 -1.32 -0.021 -1.32 0.233 -1.864l0.046 -0.105c0.227 -0.519 0.487 -0.922 0.89 -1.326a18.44 18.44 0 0 0 0.193 -0.224c0.176 -0.202 0.363 -0.39 0.556 -0.576 0.105 -0.108 0.203 -0.217 0.301 -0.332 0.293 -0.338 0.616 -0.647 0.934 -0.96q0.124 -0.123 0.248 -0.246l0.147 -0.145c0.115 -0.116 0.222 -0.237 0.328 -0.361 0.228 -0.262 0.472 -0.506 0.719 -0.75q0.126 -0.125 0.252 -0.25c0.208 -0.207 0.416 -0.414 0.624 -0.621q0.265 -0.263 0.529 -0.527 0.123 -0.122 0.246 -0.244l0.153 -0.153 0.133 -0.132a9.248 9.248 0 0 0 0.324 -0.358c0.205 -0.236 0.423 -0.457 0.645 -0.678l0.128 -0.128 0.274 -0.273a402.385 402.385 0 0 0 0.435 -0.433q0.5 -0.499 1.001 -0.998 0.496 -0.494 0.991 -0.989 0.213 -0.213 0.427 -0.425l0.263 -0.263 0.119 -0.118c0.216 -0.216 0.423 -0.438 0.622 -0.671 0.146 -0.166 0.303 -0.321 0.46 -0.476l0.103 -0.102q0.215 -0.213 0.43 -0.426c0.513 -0.505 0.513 -0.505 0.995 -1.039 0.137 -0.159 0.288 -0.304 0.438 -0.45 0.226 -0.224 0.447 -0.448 0.651 -0.692a4.899 4.899 0 0 1 0.209 -0.226c0.798 -0.826 1.103 -1.968 1.445 -3.037C24.385 9.908 24.385 9.908 24.44 9.853"
        fill="#53C9A3" />
    <path
        d="M15.958 1.545a9.578 9.578 0 0 1 0.402 0.394c0.091 0.091 0.184 0.173 0.282 0.255 0.36 0.313 0.692 0.655 1.029 0.991l0.224 0.224q0.234 0.234 0.468 0.468 0.298 0.297 0.596 0.594 0.231 0.231 0.462 0.462 0.11 0.109 0.22 0.219c1.1 1.094 2.104 2.265 2.126 3.891 -0.007 1.289 -0.556 2.6 -1.4 3.564l-0.111 0.127c-0.127 0.143 -0.255 0.283 -0.384 0.423l-0.15 0.166c-0.415 0.454 -0.845 0.893 -1.278 1.33q-0.098 0.099 -0.196 0.199c-0.996 1.014 -0.996 1.014 -1.417 1.04 -0.399 -0.073 -0.639 -0.342 -0.93 -0.609a30.991 30.991 0 0 0 -0.291 -0.264c-0.565 -0.509 -1.099 -1.05 -1.637 -1.589l-0.32 -0.32q-0.334 -0.334 -0.667 -0.668 -0.384 -0.384 -0.769 -0.769 -0.332 -0.332 -0.665 -0.664 -0.197 -0.198 -0.395 -0.395a409.046 409.046 0 0 1 -0.44 -0.44l-0.13 -0.13c-0.226 -0.227 -0.444 -0.459 -0.652 -0.703 -0.11 -0.126 -0.229 -0.242 -0.35 -0.358 -0.282 -0.28 -0.535 -0.576 -0.778 -0.891l-0.093 -0.119c-0.723 -1.001 -0.876 -2.379 -0.705 -3.574 0.278 -1.437 1.164 -2.501 2.341 -3.301 1.666 -1.039 4.12 -0.825 5.608 0.447"
        fill="#17A7C9" />
    <path
        d="M5.732 8.714c0.265 0.19 0.504 0.408 0.741 0.632q0.179 0.169 0.361 0.336c0.602 0.553 1.179 1.131 1.755 1.71q0.21 0.21 0.42 0.421 0.531 0.532 1.061 1.064 0.575 0.577 1.15 1.153 0.248 0.249 0.496 0.498 0.191 0.192 0.382 0.383l0.136 0.137c0.232 0.232 0.468 0.455 0.717 0.669 0.217 0.187 0.417 0.392 0.62 0.594a43.541 43.541 0 0 0 0.237 0.233c0.906 0.901 0.906 0.901 0.936 1.352 -0.068 0.573 -0.572 0.981 -0.961 1.365l-0.169 0.169a120.11 120.11 0 0 1 -0.354 0.352 144.936 144.936 0 0 0 -0.45 0.448q-0.217 0.216 -0.434 0.432l-0.082 0.081a119.119 119.119 0 0 1 -0.233 0.231l-0.133 0.132a10.128 10.128 0 0 1 -0.357 0.322c-0.246 0.214 -0.475 0.441 -0.705 0.672l-0.136 0.137a329.945 329.945 0 0 0 -0.291 0.292q-0.23 0.231 -0.461 0.462 -0.49 0.491 -0.979 0.982 -0.528 0.53 -1.057 1.06 -0.265 0.266 -0.53 0.532l-0.279 0.28 -0.126 0.127c-0.343 0.343 -0.702 0.662 -1.08 0.967l-0.137 0.111c-0.222 0.162 -0.459 0.18 -0.727 0.143 -0.216 -0.116 -0.393 -0.253 -0.55 -0.44 -0.028 -0.141 -0.028 -0.141 -0.028 -0.305l-0.002 -0.189 0.001 -0.208q0 -0.11 -0.001 -0.221a76.679 76.679 0 0 1 0 -0.607c0 -0.218 0 -0.436 -0.001 -0.655 -0.001 -0.428 -0.001 -0.855 -0.001 -1.283q0 -0.521 0 -1.042l0 -0.15 0 -0.301c-0.001 -0.942 0 -1.883 0.001 -2.825 0.001 -0.862 0 -1.724 -0.002 -2.586a1095.413 1095.413 0 0 1 -0.001 -2.954l0 -0.149q0 -0.521 -0.001 -1.041 -0.001 -0.634 0 -1.269c0.001 -0.216 0.001 -0.432 0 -0.648a51.193 51.193 0 0 1 0.001 -0.592c0 -0.106 -0.001 -0.211 -0.002 -0.317 0.005 -0.457 0.005 -0.457 0.164 -0.644 0.379 -0.181 0.72 -0.284 1.09 -0.053"
        fill="#5269A9" />
</svg>